<svg 
  version="1.0" 
  xmlns="http://www.w3.org/2000/svg"
  viewBox="0 0 1024 1024"
  preserveAspectRatio="xMidYMid meet"
>
  <rect width="1024" height="1024" rx="256" fill="#0F172A" />
  <g transform="translate(0,1024) scale(0.1,-0.1)" fill="#818CF8" stroke="none">
    <path d="M3220 8694 c-14 -2 -52 -9 -85 -15 -377 -65 -691 -359 -787 -735
    l-23 -89 0 -2760 0 -2760 27 -97 c54 -196 151 -360 292 -496 182 -175 372
    -264 622 -293 169 -20 366 14 530 90 308 144 525 426 589 764 12 65 15 188 15
    702 l0 622 93 7 c281 21 542 115 813 295 213 141 398 313 607 566 55 66 102
    123 106 127 20 22 469 -573 958 -1267 77 -110 193 -265 258 -345 183 -228 233
    -329 243 -488 6 -100 -10 -187 -48 -267 -86 -177 -248 -290 -435 -302 -158
    -11 -292 42 -410 161 -39 39 -264 327 -500 641 -552 733 -526 702 -589 731
    -188 88 -384 -103 -296 -289 11 -23 100 -145 197 -272 97 -126 293 -385 436
    -575 414 -549 436 -574 592 -675 95 -62 196 -108 303 -137 111 -31 353 -31
    465 0 488 134 798 620 712 1115 -35 200 -112 352 -327 638 -88 118 -295 403
    -461 634 -382 534 -530 728 -725 954 l-82 93 94 137 c52 75 279 406 505 736
    225 330 521 762 656 960 347 507 380 582 380 880 0 136 -4 173 -23 245 -82
    301 -270 535 -537 667 -135 67 -268 97 -430 97 -331 -1 -588 -133 -810 -419
    -34 -44 -168 -231 -298 -417 -426 -608 -531 -743 -714 -918 -193 -185 -371
    -290 -703 -415 -376 -141 -579 -263 -786 -469 -235 -236 -381 -505 -445 -823
    -27 -134 -37 -408 -20 -536 27 -203 104 -411 205 -551 112 -156 306 -306 509
    -392 l68 -29 -3 -680 -3 -680 -24 -65 c-56 -159 -164 -282 -304 -349 -97 -46
    -161 -61 -265 -61 -151 0 -293 56 -403 158 -76 69 -126 147 -161 246 l-28 81
    0 2699 c0 2994 -6 2750 66 2887 86 164 253 274 436 286 149 11 297 -41 407
    -142 70 -65 114 -131 150 -223 25 -67 25 -69 31 -447 5 -365 6 -382 27 -420
    81 -152 271 -175 374 -45 52 65 59 121 59 465 0 337 -10 445 -53 570 -137 399
    -500 672 -915 689 -59 3 -118 3 -132 0z m3842 -455 c80 -16 209 -83 267 -139
    36 -65 127 -159 154 -245 31 -99 30 -244 -1 -337 -32 -93 -79 -166 -449 -707
    -915 -1334 -1054 -1533 -1069 -1527 -7 3 -43 27 -81 54 -408 296 -806 438
    -1128 402 -390 -43 -655 -304 -762 -749 -25 -100 -26 -124 -30 -443 -3 -186
    -8 -338 -13 -338 -20 0 -136 98 -181 154 -171 211 -212 527 -113 874 30 106
    127 305 189 387 73 98 194 213 289 277 137 91 212 126 485 224 256 93 502 226
    683 373 174 140 395 388 604 676 44 61 185 260 313 443 128 182 259 365 291
    406 59 74 156 153 224 181 103 43 223 56 328 34z m-1980 -2972 c163 -55 349
    -152 555 -290 34 -23 63 -44 63 -47 1 -15 -189 -239 -293 -347 -227 -235 -447
    -383 -685 -463 -85 -28 -114 -33 -255 -45 l-69 -6 5 388 c4 362 6 393 26 467
    45 156 123 277 219 333 80 47 110 54 222 50 88 -3 122 -10 212 -40z"/>
  </g>
</svg>